<svg height="511pt" viewBox="1 -61 511.99948 511" width="511pt" xmlns="http://www.w3.org/2000/svg"><path d="m408.976562.519531c-40.996093-.765625-79.175781 22.648438-96.929687 59.980469-.015625 0-.03125 0-.046875 0h-297c-8.285156 0-15 6.714844-15 15v300c0 8.28125 6.714844 15 15 15h482c8.28125 0 15-6.71875 15-15 0-.816406.003906-269.308594-.007812-270.125.191406-55.757812-45.140626-103.789062-103.015626-104.855469zm-106.867187 109.847657c1.25 27.546874 13.234375 52.359374 31.820313 70.398437l-77.878907 56.199219-200.613281-146.464844h247.609375c-.917969 6.496094-1.242187 13.140625-.9375 19.867188zm-272.109375 250.132812v-251.425781l217.15625 158.539062c5.242188 3.828125 12.355469 3.847657 17.621094.050781l94.902344-68.488281c32.324218 16.429688 70.003906 14.523438 99.832031-2.734375 7.167969-4.148437 9.621093-13.324218 5.472656-20.492187-4.148437-7.171875-13.328125-9.621094-20.496094-5.476563-48.539062 28.078125-109.878906-5.679687-112.410156-61.464844-1.964844-43.410156 32.871094-79.28125 76.34375-78.496093 39.730469.734375 73.3125 33.664062 73.578125 74.769531.019531 7.109375-3.476562 13.28125-9.589844 16.929688-10.433594 6.230468-18.859375.75-23.054687-1.527344 10.554687-29.347656-11.390625-60.183594-42.355469-60.183594-24.8125 0-45 20.1875-45 45s20.1875 45 45 45c8.34375 0 16.15625-2.289062 22.863281-6.261719 8.851563 4.804688 27.511719 17.425781 52.136719 6.707031v209.554688zm377-240c-8.273438 0-15-6.730469-15-15s6.726562-15 15-15c8.269531 0 15 6.730469 15 15s-6.730469 15-15 15zm0 0"/></svg>