<svg height="511pt" viewBox="-30 0 511 511.99974" width="511pt" xmlns="http://www.w3.org/2000/svg"><path d="m226.339844 0c-73.324219 0-138.429688 34.523438-180.320313 89.507812h95.386719c14.125-41.121093 41.683594-89.507812 84.933594-89.507812zm0 0"/><path d="m213.679688 419.179688-6.027344-58.3125h-35.179688c8.769532 23.101562 23.308594 49.402343 41.207032 58.3125zm0 0"/><path d="m271.011719 264.820312 27.519531 17.488282c1.667969-13.691406 2.730469-27.808594 3.148438-42.121094h-150.6875c.960937 34.011719 5.378906 64.652344 12.058593 90.679688h41.5l-2.429687-23.4375c-3.84375-37.222657 37.210937-62.792969 68.890625-42.609376zm0 0"/><path d="m331.691406 240.1875c-.5625 20.453125-2.351562 40.601562-5.320312 59.8125l48.589844 30.867188h51.988281c14.390625-27.527344 23.25-58.277344 25.230469-90.679688zm0 0"/><path d="m311.277344 89.507812h95.382812c-41.886718-54.984374-106.992187-89.507812-180.320312-89.507812 43.238281 0 70.804687 48.359375 84.9375 89.507812zm0 0"/><path d="m331.640625 210.1875h120.417969c-2.230469-32.082031-11.136719-62.851562-26.070313-90.683594h-106.027343c6.679687 27.765625 10.679687 58.574219 11.679687 90.683594zm0 0"/><path d="m151.050781 210.1875h150.582031c-1.101562-34.082031-5.691406-64.730469-12.53125-90.683594h-125.519531c-6.839843 25.953125-11.429687 56.601563-12.53125 90.683594zm0 0"/><path d="m140.710938 360.867188h-96.21875c40.097656 53.882812 102.289062 88.53125 172.609374 91.332031l-.058593-.582031c-38.621094-6.429688-63.402344-52.207032-76.332031-90.75zm0 0"/><path d="m132.722656 119.507812h-106.03125c-14.929687 27.832032-23.839844 58.597657-26.070312 90.683594h120.421875c.996093-32.113281 4.996093-62.921875 11.679687-90.683594zm0 0"/><path d="m226.339844 30c-18.667969 0-38.449219 22.007812-53.089844 59.507812h106.179688c-14.636719-37.5-34.417969-59.507812-53.089844-59.507812zm0 0"/><path d="m120.988281 240.1875h-120.488281c1.941406 32.039062 10.542969 62.800781 25.140625 90.683594h106.601563c-6.527344-27.816406-10.382813-58.621094-11.253907-90.683594zm0 0"/><path d="m401.277344 383.140625-146.351563-93.003906c-10.574219-6.71875-24.25 1.765625-22.964843 14.203125l17.800781 172.03125c1.136719 10.976562 13.375 17.015625 22.777343 11.234375l25.792969-15.855469 20.367188 33.109375c4.34375 7.054687 13.582031 9.253906 20.632812 4.914063l51.417969-31.617188c7.050781-4.335938 9.257812-13.582031 4.917969-20.636719l-20.359375-33.089843 25.78125-15.851563c9.414062-5.785156 9.546875-19.488281.1875-25.4375zm0 0"/></svg>